<svg width="30" height="32" viewBox="0 0 30 32" fill="none" xmlns="http://www.w3.org/2000/svg">
<g clip-path="url(#clip0_102_31)">
<path d="M28.9013 12.092L19.42 1.97734C18.2466 0.729324 16.6571 0.0285034 15 0.0285034C13.3429 0.0285034 11.7535 0.729324 10.58 1.97734L1.09877 12.092C0.749297 12.4624 0.472227 12.9031 0.283618 13.3885C0.095009 13.874 -0.001388 14.3945 1.50994e-05 14.92V28.0093C1.50994e-05 29.0702 0.395103 30.0876 1.09836 30.8378C1.80163 31.5879 2.75545 32.0093 3.75002 32.0093H26.25C27.2446 32.0093 28.1984 31.5879 28.9017 30.8378C29.6049 30.0876 30 29.0702 30 28.0093V14.92C30.0014 14.3945 29.905 13.874 29.7164 13.3885C29.5278 12.9031 29.2507 12.4624 28.9013 12.092ZM18.75 29.3427H11.25V24.0973C11.25 23.0365 11.6451 22.0191 12.3484 21.2689C13.0516 20.5188 14.0055 20.0973 15 20.0973C15.9946 20.0973 16.9484 20.5188 17.6517 21.2689C18.3549 22.0191 18.75 23.0365 18.75 24.0973V29.3427ZM27.5 28.0093C27.5 28.363 27.3683 28.7021 27.1339 28.9521C26.8995 29.2022 26.5815 29.3427 26.25 29.3427H21.25V24.0973C21.25 22.3292 20.5915 20.6335 19.4194 19.3833C18.2473 18.1331 16.6576 17.4307 15 17.4307C13.3424 17.4307 11.7527 18.1331 10.5806 19.3833C9.4085 20.6335 8.75002 22.3292 8.75002 24.0973V29.3427H3.75002C3.41849 29.3427 3.10055 29.2022 2.86613 28.9521C2.63171 28.7021 2.50002 28.363 2.50002 28.0093V14.92C2.50117 14.5666 2.63275 14.228 2.86627 13.9773L12.3475 3.86667C13.0521 3.11858 14.0058 2.6986 15 2.6986C15.9942 2.6986 16.9479 3.11858 17.6525 3.86667L27.1338 13.9813C27.3664 14.231 27.4979 14.568 27.5 14.92V28.0093Z" fill="#38B138"/>
</g>
<defs>
<clipPath id="clip0_102_31">
<rect width="30" height="32" fill="white"/>
</clipPath>
</defs>
</svg>
