<svg width="425" height="402" viewBox="0 0 425 402" fill="none" xmlns="http://www.w3.org/2000/svg">
<path d="M223.5 88C202.789 88 186 104.789 186 125.5C186 146.211 202.789 163 223.5 163C244.211 163 261 146.211 261 125.5C261 104.789 244.211 88 223.5 88ZM254.514 122.148L254.498 122.135C248.458 121.509 242.735 119.122 238.039 115.271L247.618 105.692C251.477 110.385 253.875 116.106 254.514 122.148ZM243.194 101.277L233.627 110.872C229.775 106.177 227.388 100.453 226.763 94.4127C232.793 95.0475 238.505 97.4337 243.194 101.277ZM220.535 94.3971C221.188 102.1 224.223 109.408 229.218 115.308L223.49 121.037L203.758 101.305C208.538 97.3841 214.38 94.9789 220.535 94.3971ZM199.344 105.719L199.33 105.705L199.346 105.717C199.345 105.718 199.345 105.718 199.344 105.719L219.078 125.449L213.346 131.181C207.45 126.184 200.143 123.147 192.441 122.494C193.022 116.34 195.425 110.499 199.344 105.719ZM192.466 128.75V128.738C198.507 129.363 204.23 131.75 208.925 135.602L199.346 145.181C195.497 140.494 193.105 134.781 192.466 128.75ZM203.77 149.593L213.337 140.014C217.189 144.709 219.576 150.432 220.201 156.473C214.17 155.834 208.458 153.442 203.77 149.593ZM226.445 156.501C225.792 148.798 222.756 141.49 217.758 135.593L223.49 129.861L243.222 149.593C238.442 153.515 232.6 155.921 226.445 156.501ZM247.628 145.181L227.902 125.449L233.63 119.72C239.529 124.714 246.835 127.749 254.536 128.404C253.954 134.559 251.548 140.401 247.628 145.181Z" fill="#D9D9D9"/>
<path d="M298.5 164C291.083 164 283.833 166.199 277.666 170.32C271.499 174.44 266.693 180.297 263.855 187.149C261.016 194.002 260.274 201.542 261.721 208.816C263.168 216.09 266.739 222.772 271.984 228.016C277.228 233.261 283.91 236.832 291.184 238.279C298.458 239.726 305.998 238.984 312.851 236.145C319.703 233.307 325.56 228.501 329.68 222.334C333.801 216.167 336 208.917 336 201.5C335.989 191.558 332.035 182.026 325.005 174.995C317.974 167.965 308.442 164.011 298.5 164ZM316.663 212.391L322.181 210.744L320.394 204.756L314.666 206.462C314.32 204.831 314.139 203.168 314.125 201.5C314.139 199.832 314.32 198.169 314.666 196.537L320.394 198.244L322.181 192.256L316.663 190.609C318.202 187.42 320.404 184.596 323.122 182.325C327.416 187.794 329.75 194.546 329.75 201.5C329.75 208.454 327.416 215.206 323.122 220.675C320.404 218.404 318.202 215.58 316.663 212.391ZM273.878 182.325C276.596 184.596 278.798 187.42 280.338 190.609L274.819 192.256L276.606 198.244L282.334 196.537C282.68 198.169 282.861 199.832 282.875 201.5C282.861 203.168 282.68 204.831 282.334 206.462L276.606 204.756L274.819 210.744L280.338 212.391C278.798 215.58 276.596 218.404 273.878 220.675C269.584 215.206 267.25 208.454 267.25 201.5C267.25 194.546 269.584 187.794 273.878 182.325ZM278.209 225.219C281.718 222.195 284.509 218.428 286.378 214.191L292.788 216.103L294.575 210.112L288.347 208.237C288.849 206.026 289.11 203.767 289.125 201.5C289.111 199.227 288.851 196.963 288.347 194.747L294.575 192.872L292.788 186.881L286.378 188.794C284.507 184.562 281.716 180.8 278.209 177.781C283.853 172.923 291.053 170.25 298.5 170.25C305.947 170.25 313.147 172.923 318.791 177.781C315.282 180.805 312.491 184.572 310.622 188.809L304.213 186.897L302.425 192.887L308.653 194.762C307.615 199.205 307.615 203.826 308.653 208.269L302.425 210.144L304.213 216.134L310.622 214.222C312.491 218.459 315.282 222.227 318.791 225.25C313.147 230.109 305.947 232.781 298.5 232.781C291.053 232.781 283.853 230.109 278.209 225.25V225.219Z" fill="#38B138"/>
<g clip-path="url(#clip0_9_13)">
<path d="M250.016 249.984C244.772 244.746 238.094 241.18 230.824 239.736C223.554 238.293 216.02 239.037 209.173 241.875C202.326 244.713 196.475 249.517 192.358 255.68C188.241 261.843 186.043 269.088 186.043 276.5C186.043 283.912 188.241 291.157 192.358 297.32C196.475 303.483 202.326 308.287 209.173 311.125C216.02 313.963 223.554 314.707 230.824 313.264C238.094 311.82 244.772 308.254 250.016 303.016C257.038 295.978 260.981 286.442 260.981 276.5C260.981 266.558 257.038 257.022 250.016 249.984ZM254.544 273.163C250.796 273.617 246.995 273.213 243.426 271.982C239.858 270.75 236.617 268.723 233.947 266.053C231.278 263.384 229.252 260.142 228.02 256.574C226.789 253.005 226.386 249.204 226.841 245.456C233.933 246.202 240.555 249.361 245.598 254.404C250.641 259.447 253.799 266.07 254.544 273.163ZM192.456 279.838C196.204 279.383 200.005 279.787 203.574 281.018C207.142 282.25 210.383 284.277 213.052 286.947C215.721 289.616 217.748 292.858 218.98 296.426C220.211 299.995 220.614 303.796 220.159 307.544C213.066 306.798 206.445 303.639 201.402 298.596C196.359 293.553 193.201 286.93 192.456 279.838ZM245.597 298.588C240.463 303.733 233.688 306.916 226.45 307.584C226.898 303.001 226.325 298.375 224.772 294.039C223.218 289.704 220.723 285.767 217.466 282.511C214.208 279.256 210.27 276.763 205.933 275.211C201.597 273.66 196.971 273.09 192.387 273.541C193.067 266.304 196.253 259.532 201.395 254.395C206.538 249.258 213.313 246.079 220.55 245.406C220.13 249.739 220.621 254.112 221.991 258.244C223.362 262.376 225.582 266.175 228.509 269.398C231.435 272.621 235.004 275.196 238.985 276.957C242.966 278.718 247.272 279.627 251.625 279.625C252.616 279.625 253.609 279.575 254.603 279.481C253.924 286.709 250.738 293.472 245.597 298.597V298.588Z" fill="#D9D9D9"/>
</g>
<g clip-path="url(#clip1_9_13)">
<path d="M147.51 163.993C126.768 163.993 109.952 180.809 109.952 201.551C109.952 222.294 126.768 239.109 147.51 239.109C168.253 239.109 185.068 222.294 185.068 201.551C185.068 180.809 168.253 163.993 147.51 163.993ZM170.788 191.619L173.213 183.778C176.48 188.515 178.368 194.066 178.666 199.813L171.972 195.097C170.865 194.317 170.387 192.912 170.788 191.619ZM155.625 171.353H155.6L149.35 175.903C148.254 176.7 146.771 176.7 145.675 175.903L139.425 171.353C144.725 169.882 150.325 169.882 155.625 171.353ZM121.787 183.781L124.213 191.619C124.613 192.912 124.135 194.317 123.028 195.097L116.334 199.813C116.632 194.067 118.52 188.517 121.787 183.781ZM122.522 220.2L131.106 220.228C132.462 220.231 133.66 221.107 134.075 222.397L136.775 230.813C131.1 228.724 126.15 225.038 122.522 220.2ZM158.228 230.813L160.925 222.397C161.339 221.108 162.537 220.232 163.891 220.228L172.478 220.2C168.852 225.039 163.903 228.724 158.228 230.813ZM176.153 213.938L163.872 213.978C159.806 213.983 156.209 216.616 154.975 220.491L151.116 232.522C148.715 232.826 146.285 232.826 143.884 232.522L140.025 220.488C138.789 216.613 135.192 213.982 131.125 213.978L118.847 213.941C117.902 211.761 117.211 209.479 116.787 207.141L126.628 200.206C129.954 197.872 131.392 193.656 130.184 189.775L126.637 178.3C128.43 176.671 130.406 175.257 132.525 174.084L141.987 180.959C145.272 183.355 149.728 183.355 153.012 180.959L162.475 174.084C164.594 175.257 166.569 176.672 168.362 178.3L164.816 189.775C163.608 193.655 165.045 197.872 168.372 200.206L178.212 207.141C177.789 209.478 177.098 211.759 176.153 213.938Z" fill="#38B138"/>
<path d="M158.081 192.825L152.091 188.475C149.356 186.478 145.644 186.478 142.91 188.475L136.919 192.825C134.168 194.812 133.021 198.352 134.081 201.575L136.369 208.616C137.414 211.832 140.415 214.007 143.797 214H151.203C154.589 214 157.589 211.82 158.634 208.6L160.919 201.559C161.973 198.341 160.826 194.81 158.081 192.825ZM154.975 199.628L152.691 206.669C152.482 207.314 151.881 207.75 151.203 207.75H143.797C143.12 207.749 142.521 207.313 142.312 206.669L140.025 199.625C139.815 198.98 140.044 198.273 140.594 197.875L146.581 193.531C147.129 193.133 147.871 193.133 148.419 193.531L154.41 197.881C154.956 198.28 155.185 198.985 154.975 199.628Z" fill="#38B138"/>
</g>
<path d="M362.76 343.128C333.042 371.239 295.178 390.382 253.957 398.138C212.736 405.893 170.009 401.913 131.18 386.7C92.3505 371.487 59.1625 345.724 35.8127 312.67C12.4629 279.615 2.58849e-06 240.754 0 201C-2.58849e-06 161.246 12.4629 122.385 35.8127 89.3304C59.1625 56.2761 92.3505 30.5134 131.18 15.3002C170.009 0.0870044 212.736 -3.89347 253.957 3.86215C295.178 11.6178 333.042 30.7612 362.76 58.8715L317.682 101.51C296.879 81.8328 270.374 68.4324 241.52 63.0035C212.665 57.5746 182.756 60.3609 155.576 71.0102C128.395 81.6594 105.164 99.6933 88.8189 122.831C72.474 145.969 63.75 173.172 63.75 201C63.75 228.828 72.474 256.031 88.8189 279.169C105.164 302.307 128.395 320.341 155.576 330.99C182.756 341.639 212.665 344.425 241.52 338.996C270.374 333.568 296.879 320.167 317.682 300.49L362.76 343.128Z" fill="#38B138"/>
<path d="M359.032 339.593C331.831 367.004 297.174 385.671 259.445 393.234C221.716 400.797 182.608 396.915 147.068 382.08C111.528 367.246 81.1511 342.124 59.7792 309.892C38.4072 277.66 27 239.765 27 201C27 162.235 38.4072 124.34 59.7792 92.1082C81.1511 59.8762 111.528 34.7544 147.068 19.9196C182.608 5.08484 221.716 1.20338 259.445 8.76608C297.174 16.3288 331.831 34.996 359.032 62.4071L314.698 107.084C296.265 88.5087 272.78 75.859 247.213 70.7342C221.646 65.6094 195.145 68.2397 171.062 78.2924C146.978 88.345 126.394 105.369 111.911 127.21C97.4287 149.052 89.6987 174.731 89.6987 201C89.6987 227.269 97.4287 252.948 111.911 274.79C126.394 296.631 146.978 313.655 171.062 323.708C195.145 333.76 221.646 336.391 247.213 331.266C272.78 326.141 296.265 313.491 314.698 294.916L359.032 339.593Z" fill="#D9D9D9"/>
<defs>
<clipPath id="clip0_9_13">
<rect width="75" height="75" fill="white" transform="translate(186 239)"/>
</clipPath>
<clipPath id="clip1_9_13">
<rect width="75" height="75" fill="white" transform="translate(110 164)"/>
</clipPath>
</defs>
</svg>
