<svg width="30" height="32" viewBox="0 0 30 32" fill="none" xmlns="http://www.w3.org/2000/svg">
<g clip-path="url(#clip0_102_38)">
<path d="M15 10.6666C14.0111 10.6666 13.0444 10.9794 12.2222 11.5655C11.3999 12.1515 10.759 12.9844 10.3806 13.959C10.0022 14.9335 9.90315 16.0059 10.0961 17.0404C10.289 18.075 10.7652 19.0253 11.4645 19.7712C12.1637 20.5171 13.0546 21.025 14.0246 21.2308C14.9945 21.4366 15.9998 21.331 16.9134 20.9273C17.8271 20.5236 18.6079 19.8401 19.1574 18.963C19.7068 18.0859 20 17.0548 20 16C20 14.5855 19.4732 13.2289 18.5355 12.2287C17.5979 11.2285 16.3261 10.6666 15 10.6666ZM15 18.6666C14.5055 18.6666 14.0222 18.5102 13.6111 18.2172C13.2 17.9242 12.8795 17.5077 12.6903 17.0204C12.5011 16.5332 12.4516 15.997 12.548 15.4797C12.6445 14.9624 12.8826 14.4873 13.2322 14.1143C13.5819 13.7414 14.0273 13.4874 14.5123 13.3845C14.9972 13.2816 15.4999 13.3344 15.9567 13.5363C16.4135 13.7381 16.804 14.0799 17.0787 14.5184C17.3534 14.957 17.5 15.4725 17.5 16C17.5 16.7072 17.2366 17.3855 16.7678 17.8856C16.2989 18.3857 15.663 18.6666 15 18.6666Z" fill="white"/>
<path d="M26.6175 18.5333L26.0625 18.192C26.3124 16.7419 26.3124 15.2554 26.0625 13.8053L26.6175 13.464C27.0443 13.2014 27.4184 12.8516 27.7185 12.4347C28.0186 12.0179 28.2387 11.5421 28.3664 11.0344C28.4941 10.5268 28.5268 9.99732 28.4626 9.47621C28.3985 8.95511 28.2387 8.45258 27.9925 7.99733C27.7463 7.54208 27.4184 7.14302 27.0276 6.82294C26.6368 6.50285 26.1907 6.26801 25.7148 6.13182C25.2389 5.99562 24.7425 5.96075 24.2539 6.02918C23.7654 6.09762 23.2943 6.26802 22.8675 6.53067L22.3112 6.87333C21.2607 5.91589 20.0533 5.17366 18.75 4.684V4C18.75 2.93913 18.3549 1.92172 17.6516 1.17157C16.9484 0.421427 15.9946 0 15 0C14.0054 0 13.0516 0.421427 12.3483 1.17157C11.6451 1.92172 11.25 2.93913 11.25 4V4.684C9.94673 5.17542 8.7398 5.91947 7.68999 6.87867L7.13124 6.53333C6.26929 6.0029 5.24509 5.85943 4.28397 6.13448C3.32285 6.40954 2.50352 7.08058 2.00624 8C1.50896 8.91942 1.37446 10.0119 1.63232 11.0371C1.89018 12.0623 2.51929 12.9362 3.38124 13.4667L3.93624 13.808C3.68638 15.2581 3.68638 16.7446 3.93624 18.1947L3.38124 18.536C2.51929 19.0664 1.89018 19.9404 1.63232 20.9656C1.37446 21.9908 1.50896 23.0833 2.00624 24.0027C2.50352 24.9221 3.32285 25.5931 4.28397 25.8682C5.24509 26.1432 6.26929 25.9998 7.13124 25.4693L7.68749 25.1267C8.73845 26.0842 9.94622 26.8265 11.25 27.316V28C11.25 29.0609 11.6451 30.0783 12.3483 30.8284C13.0516 31.5786 14.0054 32 15 32C15.9946 32 16.9484 31.5786 17.6516 30.8284C18.3549 30.0783 18.75 29.0609 18.75 28V27.316C20.0533 26.8246 21.2602 26.0805 22.31 25.1213L22.8687 25.4653C23.7307 25.9958 24.7549 26.1392 25.716 25.8642C26.6771 25.5891 27.4965 24.9181 27.9937 23.9987C28.491 23.0793 28.6255 21.9868 28.3677 20.9616C28.1098 19.9364 27.4807 19.0624 26.6187 18.532L26.6175 18.5333ZM23.4325 13.4987C23.8558 15.1348 23.8558 16.8626 23.4325 18.4987C23.3586 18.7834 23.3754 19.0863 23.4804 19.3597C23.5854 19.6332 23.7726 19.8617 24.0125 20.0093L25.3675 20.844C25.6548 21.0208 25.8644 21.3121 25.9503 21.6538C26.0362 21.9955 25.9914 22.3596 25.8256 22.666C25.6599 22.9724 25.3868 23.196 25.0664 23.2877C24.7461 23.3793 24.4048 23.3315 24.1175 23.1547L22.76 22.3173C22.5199 22.169 22.2403 22.1101 21.9653 22.1499C21.6903 22.1897 21.4356 22.326 21.2412 22.5373C20.1286 23.7489 18.727 24.6133 17.1875 25.0373C16.9188 25.111 16.6807 25.278 16.5107 25.5119C16.3408 25.7458 16.2486 26.0334 16.2487 26.3293V28C16.2487 28.3536 16.117 28.6928 15.8826 28.9428C15.6482 29.1929 15.3303 29.3333 14.9987 29.3333C14.6672 29.3333 14.3493 29.1929 14.1149 28.9428C13.8804 28.6928 13.7487 28.3536 13.7487 28V26.3307C13.7489 26.0347 13.6567 25.7471 13.4867 25.5132C13.3168 25.2793 13.0787 25.1124 12.81 25.0387C11.2704 24.6129 9.86915 23.7466 8.75749 22.5333C8.56315 22.322 8.30841 22.1857 8.03344 22.1459C7.75846 22.1061 7.47887 22.165 7.23874 22.3133L5.88374 23.1493C5.74153 23.2383 5.58423 23.2963 5.4209 23.3201C5.25757 23.344 5.09143 23.3331 4.93206 23.2881C4.77269 23.2432 4.62322 23.1651 4.49227 23.0582C4.36132 22.9514 4.25146 22.8181 4.16904 22.6658C4.08661 22.5135 4.03324 22.3453 4.01199 22.1709C3.99074 21.9966 4.00204 21.8194 4.04523 21.6497C4.08842 21.48 4.16266 21.3211 4.26366 21.1822C4.36466 21.0432 4.49044 20.9269 4.63374 20.84L5.98874 20.0053C6.22868 19.8577 6.41584 19.6292 6.52082 19.3557C6.6258 19.0823 6.64266 18.7794 6.56874 18.4947C6.14544 16.8586 6.14544 15.1308 6.56874 13.4947C6.64133 13.2105 6.62366 12.9087 6.51851 12.6364C6.41336 12.3641 6.22664 12.1365 5.98749 11.9893L4.63249 11.1547C4.34523 10.9779 4.13558 10.6866 4.04967 10.3449C3.96375 10.0032 4.00861 9.63908 4.17437 9.33267C4.34013 9.02625 4.61321 8.80263 4.93355 8.71099C5.25388 8.61934 5.59523 8.66719 5.88249 8.844L7.23999 9.68133C7.47947 9.83002 7.75847 9.88962 8.03315 9.85076C8.30784 9.8119 8.56263 9.67679 8.75749 9.46667C9.8701 8.25512 11.2718 7.39069 12.8112 6.96667C13.0808 6.89275 13.3195 6.725 13.4895 6.49C13.6596 6.255 13.7512 5.96619 13.75 5.66933V4C13.75 3.64638 13.8817 3.30724 14.1161 3.05719C14.3505 2.80714 14.6685 2.66667 15 2.66667C15.3315 2.66667 15.6495 2.80714 15.8839 3.05719C16.1183 3.30724 16.25 3.64638 16.25 4V5.66933C16.2499 5.96528 16.342 6.25286 16.512 6.48677C16.6819 6.72069 16.92 6.88764 17.1887 6.96133C18.7288 7.38687 20.1305 8.25318 21.2425 9.46667C21.4368 9.67796 21.6916 9.81426 21.9665 9.85409C22.2415 9.89392 22.5211 9.83502 22.7612 9.68667L24.1162 8.85067C24.2585 8.76174 24.4158 8.70369 24.5791 8.67987C24.7424 8.65605 24.9086 8.66692 25.0679 8.71187C25.2273 8.75681 25.3768 8.83494 25.5077 8.94175C25.6387 9.04856 25.7485 9.18195 25.8309 9.33423C25.9134 9.48651 25.9667 9.65468 25.988 9.82905C26.0092 10.0034 25.9979 10.1806 25.9548 10.3503C25.9116 10.52 25.8373 10.6789 25.7363 10.8178C25.6353 10.9568 25.5096 11.0731 25.3662 11.16L24.0112 11.9947C23.7726 12.1423 23.5864 12.37 23.4817 12.6423C23.377 12.9145 23.3597 13.2161 23.4325 13.5V13.4987Z" fill="white"/>
</g>
<defs>
<clipPath id="clip0_102_38">
<rect width="30" height="32" fill="white"/>
</clipPath>
</defs>
</svg>
