<svg width="30" height="32" viewBox="0 0 30 32" fill="none" xmlns="http://www.w3.org/2000/svg">
<g clip-path="url(#clip0_102_33)">
<path d="M15 16C16.4834 16 17.9334 15.5308 19.1668 14.6518C20.4001 13.7727 21.3614 12.5233 21.9291 11.0615C22.4968 9.59966 22.6453 7.99113 22.3559 6.43928C22.0665 4.88743 21.3522 3.46197 20.3033 2.34315C19.2544 1.22433 17.918 0.462403 16.4632 0.153721C15.0083 -0.15496 13.5003 0.00346629 12.1299 0.608967C10.7594 1.21447 9.58809 2.23985 8.76398 3.55544C7.93987 4.87104 7.5 6.41775 7.5 8C7.50199 10.1211 8.2928 12.1547 9.69889 13.6545C11.105 15.1544 13.0115 15.9979 15 16ZM15 2.66667C15.9889 2.66667 16.9556 2.97947 17.7779 3.5655C18.6001 4.15153 19.241 4.98449 19.6194 5.95903C19.9978 6.93357 20.0969 8.00592 19.9039 9.04049C19.711 10.0751 19.2348 11.0254 18.5355 11.7712C17.8363 12.5171 16.9454 13.0251 15.9755 13.2309C15.0055 13.4366 14.0002 13.331 13.0866 12.9274C12.173 12.5237 11.3921 11.8401 10.8427 10.963C10.2932 10.086 10 9.05484 10 8C10 6.58552 10.5268 5.22896 11.4645 4.22877C12.4021 3.22857 13.6739 2.66667 15 2.66667Z" fill="white"/>
<path d="M15 18.6666C12.0173 18.6702 9.15777 19.9356 7.0487 22.1852C4.93964 24.4349 3.75331 27.4851 3.75 30.6666C3.75 31.0202 3.8817 31.3594 4.11612 31.6094C4.35054 31.8595 4.66848 32 5 32C5.33152 32 5.64946 31.8595 5.88388 31.6094C6.1183 31.3594 6.25 31.0202 6.25 30.6666C6.25 28.1913 7.17187 25.8173 8.81282 24.067C10.4538 22.3166 12.6794 21.3333 15 21.3333C17.3206 21.3333 19.5462 22.3166 21.1872 24.067C22.8281 25.8173 23.75 28.1913 23.75 30.6666C23.75 31.0202 23.8817 31.3594 24.1161 31.6094C24.3505 31.8595 24.6685 32 25 32C25.3315 32 25.6495 31.8595 25.8839 31.6094C26.1183 31.3594 26.25 31.0202 26.25 30.6666C26.2467 27.4851 25.0604 24.4349 22.9513 22.1852C20.8422 19.9356 17.9827 18.6702 15 18.6666Z" fill="white"/>
</g>
<defs>
<clipPath id="clip0_102_33">
<rect width="30" height="32" fill="white"/>
</clipPath>
</defs>
</svg>
